<?xml version="1.0" standalone="no"?>
<!DOCTYPE svg PUBLIC "-//W3C//DTD SVG 20010904//EN"
 "http://www.w3.org/TR/2001/REC-SVG-20010904/DTD/svg10.dtd">
<svg version="1.0" xmlns="http://www.w3.org/2000/svg"
 width="1678.000000pt" height="1678.000000pt" viewBox="0 0 1678.000000 1678.000000"
 preserveAspectRatio="xMidYMid meet">
<metadata>
Created by potrace 1.14, written by Peter Selinger 2001-2017
</metadata>
<g transform="translate(0.000000,1678.000000) scale(0.100000,-0.100000)"
fill="#000000" stroke="none">
<path d="M11229 15856 c-2 -2 -89 -7 -194 -10 -310 -11 -433 -18 -505 -31 -14
-2 -45 -7 -70 -10 -56 -8 -90 -13 -160 -25 -30 -6 -68 -13 -85 -15 -16 -3 -38
-8 -47 -11 -9 -3 -25 -6 -35 -8 -125 -25 -393 -106 -570 -172 -344 -129 -639
-279 -958 -489 -60 -40 -134 -85 -164 -101 -30 -16 -70 -43 -88 -60 -29 -27
-33 -37 -28 -65 3 -18 8 -35 10 -39 4 -6 -252 -722 -300 -840 -8 -19 -42 -111
-76 -205 -34 -93 -67 -183 -74 -200 -7 -16 -41 -104 -74 -195 -34 -91 -66
-174 -70 -185 -5 -11 -18 -45 -29 -75 -94 -253 -208 -542 -247 -625 -26 -55
-61 -129 -77 -165 -56 -119 -100 -214 -164 -348 -35 -74 -64 -135 -64 -137 0
-1 -26 -58 -59 -126 -32 -68 -67 -144 -79 -169 -11 -25 -50 -107 -86 -184 -36
-76 -66 -139 -66 -141 0 -2 -29 -63 -63 -136 -35 -74 -84 -177 -108 -229 -24
-52 -51 -106 -61 -120 -10 -14 -27 -52 -39 -85 -33 -97 -99 -205 -128 -212
-15 -3 -59 -21 -99 -39 -483 -219 -799 -897 -661 -1417 5 -21 8 -46 5 -55 -29
-94 -26 -928 4 -1097 37 -209 87 -366 167 -520 95 -184 140 -248 298 -429 95
-109 178 -193 223 -227 l33 -25 -75 -97 c-41 -53 -84 -106 -95 -119 -11 -13
-69 -84 -128 -159 -59 -75 -153 -192 -208 -260 -55 -68 -109 -136 -120 -150
-17 -22 -187 -234 -237 -294 -14 -17 -107 -132 -141 -175 -68 -85 -137 -172
-157 -199 -40 -52 -257 -322 -303 -376 -168 -199 -474 -515 -604 -625 -36 -30
-71 -60 -77 -65 -32 -31 -180 -138 -241 -175 -105 -65 -259 -136 -360 -166
-74 -22 -111 -27 -206 -28 -132 -1 -130 -2 -192 84 -22 30 -43 57 -47 60 -20
17 -122 192 -171 295 -63 132 -108 255 -143 397 -33 129 -43 184 -61 318 -3
25 -8 61 -10 80 -23 172 -23 686 -1 805 2 11 7 56 11 99 4 43 8 86 10 95 1 9
6 41 9 72 4 31 9 67 11 79 2 12 7 41 9 64 6 43 10 69 26 151 14 74 22 118 25
135 1 8 5 29 8 45 4 17 9 39 11 50 12 57 49 216 81 340 19 77 37 148 39 157 3
9 14 51 26 93 12 42 23 84 25 93 20 92 219 690 246 742 11 19 19 38 19 42 0 4
14 38 31 75 17 38 65 145 106 238 41 94 88 198 104 233 16 35 29 65 29 67 0 2
15 36 34 77 83 179 152 353 171 434 3 10 12 48 21 84 39 158 49 326 25 416
-16 58 -63 120 -113 146 -60 32 -215 31 -343 0 -108 -27 -306 -91 -319 -103
-6 -5 -16 -9 -22 -9 -20 0 -240 -109 -356 -177 -380 -220 -729 -502 -1168
-943 -309 -310 -465 -482 -610 -675 -41 -55 -77 -102 -80 -105 -10 -9 -180
-270 -206 -315 -176 -306 -264 -492 -375 -792 -157 -427 -265 -922 -304 -1393
-12 -147 -13 -171 -19 -360 -3 -102 -9 -239 -13 -305 -15 -232 -8 -723 11
-820 2 -11 7 -49 11 -85 4 -36 10 -83 15 -105 5 -22 11 -60 15 -85 10 -75 82
-358 121 -475 161 -488 414 -893 782 -1249 130 -125 188 -171 310 -247 59 -36
156 -96 215 -133 378 -234 845 -388 1442 -476 289 -42 641 -46 920 -10 110 14
144 20 235 40 47 10 96 21 110 23 66 12 300 88 430 139 336 133 659 331 980
601 52 44 172 157 266 251 184 184 153 142 469 626 34 52 102 156 150 230 49
74 122 187 163 250 41 63 125 192 187 285 61 94 144 222 185 285 41 63 78 120
82 125 5 6 68 102 141 215 74 113 209 320 302 460 92 140 202 307 243 370 41
63 76 117 78 119 2 3 118 -91 134 -110 3 -3 41 -29 85 -58 314 -205 794 -330
1292 -336 100 -1 208 2 240 6 32 4 76 10 98 13 199 24 470 120 643 228 110 69
150 102 297 247 77 76 151 141 165 144 21 5 287 216 380 301 58 53 123 96 153
101 20 4 106 60 217 141 209 153 184 135 350 255 69 49 145 105 170 123 85 62
748 528 820 576 8 5 56 38 105 73 91 64 333 224 570 378 72 47 195 120 275
164 80 43 159 87 177 96 42 24 150 82 448 244 99 53 214 116 255 138 41 23
100 55 131 72 31 16 103 55 160 86 57 30 386 197 732 369 580 290 629 313 656
304 26 -10 34 -7 107 48 86 64 90 69 97 113 3 17 10 53 17 80 6 28 14 61 16
75 2 14 9 48 14 75 5 28 12 68 16 90 3 22 7 47 9 55 3 8 7 33 10 55 3 22 10
69 15 105 11 77 18 137 26 245 4 44 8 98 10 120 4 51 4 557 0 610 -10 120 -17
204 -21 235 -2 19 -7 60 -10 90 -4 30 -8 62 -10 70 -2 8 -6 38 -10 65 -10 83
-20 141 -50 292 -142 706 -446 1444 -869 2111 -141 222 -381 546 -539 728
-129 149 -163 186 -293 317 -79 81 -205 200 -279 266 -28 24 -63 56 -80 70
-53 47 -327 264 -425 337 -659 488 -1405 835 -2020 940 -24 4 -109 20 -160 30
-41 8 -343 66 -365 70 -11 2 -31 6 -45 9 -41 8 -109 14 -230 20 -63 4 -117 8
-121 10 -3 3 -8 3 -10 1z"/>
</g>
</svg>
